<svg width="595" height="335" viewBox="0 0 595 335" fill="none" xmlns="http://www.w3.org/2000/svg">
<path d="M502.582 0H102.418C96.6643 0 92 4.20244 92 9.38641V262.614C92 267.798 96.6643 272 102.418 272H502.582C508.336 272 513 267.798 513 262.614V9.38641C513 4.20244 508.336 0 502.582 0Z" fill="#CFCFCF"/>
<path d="M102.418 0H502.582C505.345 0 507.995 1.02473 509.949 2.84875C511.902 4.67277 513 7.14668 513 9.72623V241H92V9.72623C92 7.14668 93.0976 4.67277 95.0514 2.84875C97.0051 1.02473 99.655 0 102.418 0V0Z" fill="#DBDBDB"/>
<path d="M500 13H105V226H500V13Z" fill="#F9FBFF"/>
<path d="M337.993 334.424H267.801C265.837 334.424 263.895 334.004 262.106 333.193C260.317 332.382 258.721 331.198 257.426 329.72C256.13 328.242 255.165 326.505 254.595 324.624C254.024 322.743 253.862 320.762 254.118 318.813L260.265 272H345.87L351.69 318.932C351.928 320.873 351.751 322.842 351.171 324.709C350.592 326.577 349.622 328.3 348.328 329.764C347.033 331.229 345.442 332.402 343.66 333.205C341.879 334.008 339.947 334.424 337.993 334.424Z" fill="#DBDBDB"/>
<path d="M302 266C306.971 266 311 261.971 311 257C311 252.029 306.971 248 302 248C297.029 248 293 252.029 293 257C293 261.971 297.029 266 302 266Z" fill="white"/>
<path opacity="0.5" d="M279.158 126.208V116.928H272.758V89.6H262.966L239.606 117.952V126.208H262.198V136H272.758V126.208H279.158ZM251.19 116.928L262.198 103.36V116.928H251.19ZM282.602 112.704C282.602 127.552 289.45 136.832 302.506 136.832C315.498 136.832 322.346 127.552 322.346 112.704C322.346 97.92 315.498 88.832 302.506 88.832C289.45 88.832 282.602 97.92 282.602 112.704ZM311.53 112.704C311.53 123.968 307.882 129.024 302.506 129.024C297.066 129.024 293.418 123.968 293.418 112.704C293.418 101.568 297.066 96.64 302.506 96.64C307.882 96.64 311.53 101.568 311.53 112.704ZM365.47 126.208V116.928H359.07V89.6H349.278L325.918 117.952V126.208H348.51V136H359.07V126.208H365.47ZM337.502 116.928L348.51 103.36V116.928H337.502ZM269.471 149.7V170H285.039V165.772H274.259V161.684H284.451V157.456H274.259V153.9H285.039V149.7H269.471ZM297.109 159.36V154.852C296.885 154.824 296.633 154.824 296.409 154.824C294.253 154.908 292.993 156.028 292.293 157.792V154.936H287.841V170H292.461V162.44C292.461 160.088 293.637 159.276 295.849 159.276C296.269 159.276 296.605 159.304 297.109 159.36ZM308.348 159.36V154.852C308.124 154.824 307.872 154.824 307.648 154.824C305.492 154.908 304.232 156.028 303.532 157.792V154.936H299.08V170H303.7V162.44C303.7 160.088 304.876 159.276 307.088 159.276C307.508 159.276 307.844 159.304 308.348 159.36ZM325.382 162.412C325.382 156.952 321.574 154.488 317.402 154.488C313.23 154.488 309.422 156.952 309.422 162.412C309.422 167.872 313.23 170.364 317.402 170.364C321.574 170.364 325.382 167.872 325.382 162.412ZM314.126 162.412C314.126 159.22 315.582 158.072 317.402 158.072C319.222 158.072 320.678 159.22 320.678 162.412C320.678 165.576 319.278 166.78 317.402 166.78C315.526 166.78 314.126 165.576 314.126 162.412ZM337.059 159.36V154.852C336.835 154.824 336.583 154.824 336.359 154.824C334.203 154.908 332.943 156.028 332.243 157.792V154.936H327.791V170H332.411V162.44C332.411 160.088 333.587 159.276 335.799 159.276C336.219 159.276 336.555 159.304 337.059 159.36Z" fill="#276EF1"/>
<path opacity="0.1" d="M50 32H4C1.79086 32 0 33.7909 0 36V86C0 88.2091 1.79086 90 4 90H50C52.2091 90 54 88.2091 54 86V36C54 33.7909 52.2091 32 50 32Z" fill="#276EF1"/>
<path opacity="0.1" d="M591 120H436C433.791 120 432 121.791 432 124V130C432 132.209 433.791 134 436 134H591C593.209 134 595 132.209 595 130V124C595 121.791 593.209 120 591 120Z" fill="#276EF1"/>
<path opacity="0.1" d="M591 150H436C433.791 150 432 151.791 432 154V160C432 162.209 433.791 164 436 164H591C593.209 164 595 162.209 595 160V154C595 151.791 593.209 150 591 150Z" fill="#276EF1"/>
<path opacity="0.1" d="M591 180H436C433.791 180 432 181.791 432 184V190C432 192.209 433.791 194 436 194H591C593.209 194 595 192.209 595 190V184C595 181.791 593.209 180 591 180Z" fill="#276EF1"/>
<path opacity="0.1" d="M116 32H70C67.7909 32 66 33.7909 66 36V86C66 88.2091 67.7909 90 70 90H116C118.209 90 120 88.2091 120 86V36C120 33.7909 118.209 32 116 32Z" fill="#276EF1"/>
<path opacity="0.1" d="M181 32H135C132.791 32 131 33.7909 131 36V86C131 88.2091 132.791 90 135 90H181C183.209 90 185 88.2091 185 86V36C185 33.7909 183.209 32 181 32Z" fill="#276EF1"/>
</svg>
